<svg xmlns="http://www.w3.org/2000/svg" viewBox="0 0 400 400"><defs><style>.a,.b{fill:#fff;}.b{opacity:0.25;}</style></defs><path class="a" d="M182.5,212.5a26.25,26.25,0,1,0-26.25,26.25A26.21,26.21,0,0,0,182.5,212.5Z"/><path class="a" d="M200,0C89.54,0,0,89.54,0,200S89.54,400,200,400s200-89.54,200-200S310.46,0,200,0Zm54.6,190.62c22.23,6.4,48.48,0,48.48,0-7.62,33.25-31.77,54.07-66.59,56.61A87.33,87.33,0,0,1,156.25,300h0a87.5,87.5,0,1,1,57.22-153.58C229.31,127.16,249.56,125,287.31,125h43.94C323.9,157.37,298.57,182.11,254.6,190.62Z"/><path class="b" d="M182.5,216.57c11.07-35.18,20-56.76,31-70.15A87.46,87.46,0,1,0,156.25,300h0ZM130,212.5a26.25,26.25,0,1,1,26.25,26.25A26.21,26.21,0,0,1,130,212.5Z"/></svg>