<?xml version="1.0" encoding="UTF-8"?>
<svg id="_图层_2" data-name="图层 2" xmlns="http://www.w3.org/2000/svg" viewBox="0 0 374.64 253">
  <defs>
    <style>
      .cls-1 {
        fill: none;
        stroke: #1e1e1e;
        stroke-miterlimit: 10;
        stroke-width: 13px;
      }
    </style>
  </defs>
  <g id="Layer_1" data-name="Layer 1">
    <path class="cls-1" d="m366.5,6.5h-60.26c-51.77,0-79.55,2.97-101.26,29.37-21.05-18.25-48.45-29.37-78.47-29.37-66.24,0-120,53.76-120,120s53.76,120,120,120c49.32,0,91.68-29.76,110.04-72.36,47.76-3.48,80.88-32.04,91.32-77.64,0,0-35.99,8.77-66.48,0,60.3-11.68,95.04-45.6,105.12-90ZM90.5,126.5c0-19.92,16.08-36,36-36,7.05,0,13.56,2.09,19.1,5.57.7-4.48,2-8.92,4.12-13.15,7.72-15.43,23.61-25.07,40.86-24.79.04,0,.08.01.12.01-13.79,26.68-21.09,50.3-29.98,78.98-4.55,14.67-18.04,25.37-34.23,25.37-19.92,0-36-16.08-36-36Z"/>
  </g>
</svg>