<?xml version="1.0" encoding="utf-8"?>
<!-- Generator: Adobe Illustrator 28.0.0, SVG Export Plug-In . SVG Version: 6.00 Build 0)  -->
<svg version="1.1" id="图层_1" xmlns="http://www.w3.org/2000/svg" xmlns:xlink="http://www.w3.org/1999/xlink" x="0px" y="0px"
	 viewBox="0 0 396.9 283.5" style="enable-background:new 0 0 396.9 283.5;" xml:space="preserve">
<style type="text/css">
	.st0{fill:none;}
</style>
<path class="st0" d="M375.1,33.5h-62.8c-53.9,0-82.9,3.1-105.5,30.6C154.7,18.9,75.7,24.5,30.5,76.7S-9.1,207.8,43.1,253
	s131.1,39.6,176.3-12.6c8.4-9.7,15.2-20.6,20.3-32.3c49.8-3.6,84.2-33.4,95.1-80.9c0,0-37.5,9.1-69.2,0
	C328.4,115.1,364.6,79.7,375.1,33.5z M87.6,158.5c-0.1-20.6,16.6-37.4,37.3-37.5c7.1,0,14.1,2,20.1,5.8c3.4-23.1,23.5-40,46.9-39.5
	h0.1c-14.4,27.8-22,52.4-31.2,82.3c-6.1,19.7-27,30.8-46.7,24.8C98.3,189.5,87.6,175,87.6,158.5z"/>
</svg>
